Coordinates
version=1
nRows=5
nColumns=40
inDegrees=yes

Units are S.I. units (second, meters, Newtons, ...)
Angles are in degrees.

endheader
time	pelvis_tilt	pelvis_list	pelvis_rotation	pelvis_tx	pelvis_ty	pelvis_tz	hip_flexion_r	hip_adduction_r	hip_rotation_r	knee_angle_r	knee_angle_r_beta	ankle_angle_r	subtalar_angle_r	mtp_angle_r	hip_flexion_l	hip_adduction_l	hip_rotation_l	knee_angle_l	knee_angle_l_beta	ankle_angle_l	subtalar_angle_l	mtp_angle_l	lumbar_extension	lumbar_bending	lumbar_rotation	arm_flex_r	arm_add_r	arm_rot_r	elbow_flex_r	pro_sup_r	wrist_flex_r	wrist_dev_r	arm_flex_l	arm_add_l	arm_rot_l	elbow_flex_l	pro_sup_l	wrist_flex_l	wrist_dev_l
     26.78000000	     -4.50220116	     -4.94835297	      1.94915359	      1.08540644	      0.92906667	      0.41974133	     29.99016265	     -5.73320412	     -5.54428220	     66.31446895	     66.31446895	      0.61291909	    -14.24178364	      0.13224569	     18.08222631	     -6.37838270	     -3.38433090	     24.59986557	     24.59986557	     13.03556112	    -10.96652591	      0.82348252	    -11.70748265	      2.07941598	      1.01223622	      5.71403002	    -15.63982762	     -3.46029077	     29.84633684	     46.25897434	      0.00000000	      0.00000000	      8.50198799	    -15.85533267	     -8.07848757	     40.41004682	     45.93057176	      0.00000000	      0.00000000
     26.79328571	     -4.49440346	     -5.17260349	      1.33332692	      1.08498739	      0.92972920	      0.41995385	     30.92935340	     -5.37980093	     -5.45391122	     65.01917469	     65.01917469	      0.68094110	    -14.40106666	      0.22618760	     17.47557928	     -6.71516089	     -3.72112289	     24.36849159	     24.36849159	     13.24286486	    -11.21445360	      0.89199901	    -11.88086736	      2.38220378	      0.88914413	      5.25097520	    -16.12472562	     -3.62329988	     29.44550357	     46.28335132	      0.00000000	      0.00000000	      8.55383071	    -16.01161169	     -8.12525254	     40.65849835	     45.94400336	      0.00000000	      0.00000000
     26.80657143	     -4.53198639	     -5.22519403	      0.73492307	      1.08448581	      0.93014624	      0.42005014	     31.85632182	     -5.23893267	     -5.34998794	     63.59773131	     63.59773131	      0.79104923	    -14.28981073	      0.32981413	     17.01833975	     -6.85528330	     -4.08427239	     24.33605268	     24.33605268	     13.44881381	    -11.49635038	      0.89459838	    -11.98250503	      2.48177097	      0.57722391	      4.86539516	    -16.52466529	     -3.71917871	     29.23050708	     46.29634480	      0.00000000	      0.00000000	      8.66393143	    -16.24374053	     -8.16116437	     40.77221313	     45.95158644	      0.00000000	      0.00000000
     26.81985714	     -4.48875573	     -5.56274555	      0.09443890	      1.08410365	      0.93095421	      0.42052092	     32.45624249	     -4.63084491	     -5.30822870	     61.68944547	     61.68944547	      0.58051607	    -14.62120179	      0.04586467	     16.24985099	     -7.27953545	     -4.35041655	     23.87992172	     23.87992172	     13.69580800	    -11.82474917	      1.33772353	    -12.29035844	      2.91689542	      0.54463980	      5.04975245	    -16.61270123	     -6.28117933	     27.36400881	     46.55451997	      0.00000000	      0.00000000	      7.83866396	    -16.70231710	     -7.41610508	     43.02707084	     45.95079934	      0.00000000	      0.00000000
     26.83314286	     -4.59663317	     -5.68006559	     -0.53412912	      1.08355618	      0.93122214	      0.42090736	     33.18989388	     -4.34646277	     -5.29421215	     59.66633582	     59.66633582	      0.69911085	    -14.29978654	      0.22087172	     15.81728646	     -7.49078219	     -4.73824301	     23.73658356	     23.73658356	     13.87314107	    -12.11887702	      1.38346751	    -12.36368992	      3.09930592	      0.40567520	      4.71982532	    -17.00384263	     -6.40464144	     27.18163640	     46.56889440	      0.00000000	      0.00000000	      7.89340494	    -16.90860449	     -7.44920184	     43.10288615	     45.95873538	      0.00000000	      0.00000000
